<svg aria-hidden="true" style="position: absolute; width: 0; height: 0; overflow: hidden;" version="1.1" xmlns="http://www.w3.org/2000/svg" xmlns:xlink="http://www.w3.org/1999/xlink">
<defs>
<symbol id="icon-email" viewBox="0 0 43 32">
<path d="M1.714 9.655v16.345c0 3.156 2.558 5.714 5.714 5.714h28.571c3.156 0 5.714-2.558 5.714-5.714v-16.345l-17.005 10.465c-1.837 1.13-4.153 1.13-5.99 0l-17.005-10.465z"></path>
<path d="M41.714 6.301v-0.301c0-3.156-2.558-5.714-5.714-5.714h-28.571c-3.156 0-5.714 2.558-5.714 5.714v0.301l18.503 11.386c0.918 0.565 2.077 0.565 2.995 0l18.503-11.386z"></path>
</symbol>
<symbol id="icon-phone" viewBox="0 0 32 32">
<path d="M2 6c0-2.209 1.791-4 4-4h1.829c1.147 0 2.147 0.781 2.425 1.894l1.474 5.898c0.244 0.976-0.121 2.003-0.925 2.606l-1.725 1.294c-0.179 0.134-0.218 0.331-0.168 0.468 1.514 4.133 4.797 7.416 8.93 8.93 0.137 0.050 0.334 0.011 0.468-0.168l1.294-1.725c0.604-0.805 1.631-1.169 2.606-0.925l5.898 1.474c1.113 0.278 1.894 1.278 1.894 2.425v1.829c0 2.209-1.791 4-4 4h-3c-11.598 0-21-9.402-21-21v-3z"></path>
</symbol>
<symbol id="icon-location" viewBox="0 0 27 32">
<path d="M12.652 31.335c-0.089-0.052-0.217-0.127-0.378-0.227-0.321-0.198-0.775-0.49-1.317-0.873-1.082-0.764-2.526-1.899-3.973-3.38-2.88-2.949-5.872-7.38-5.872-13.078 0-6.75 5.472-12.222 12.222-12.222s12.222 5.472 12.222 12.222c0 5.698-2.992 10.129-5.872 13.078-1.447 1.482-2.891 2.616-3.973 3.38-0.542 0.383-0.996 0.675-1.317 0.873-0.161 0.099-0.289 0.175-0.378 0.227-0.045 0.026-0.080 0.046-0.105 0.060l-0.042 0.024c-0.331 0.179-0.74 0.181-1.070-0.001l-0.041-0.023c-0.025-0.014-0.060-0.034-0.105-0.060zM13.333 18.222c2.455 0 4.444-1.99 4.444-4.444s-1.99-4.444-4.444-4.444c-2.455 0-4.444 1.99-4.444 4.444s1.99 4.444 4.444 4.444z"></path>
</symbol>
<symbol id="icon-close" viewBox="0 0 32 32">
<path d="M7.293 7.293c0.391-0.391 1.024-0.391 1.414 0l7.293 7.293 7.293-7.293c0.391-0.391 1.024-0.391 1.414 0s0.391 1.024 0 1.414l-7.293 7.293 7.293 7.293c0.391 0.391 0.391 1.024 0 1.414s-1.024 0.391-1.414 0l-7.293-7.293-7.293 7.293c-0.391 0.391-1.024 0.391-1.414 0s-0.391-1.024 0-1.414l7.293-7.293-7.293-7.293c-0.391-0.391-0.391-1.024 0-1.414z"></path>
</symbol>
<symbol id="icon-menu" viewBox="0 0 46 32">
<path d="M0.444 2.778c0-1.043 0.846-1.889 1.889-1.889h41.556c1.043 0 1.889 0.846 1.889 1.889s-0.846 1.889-1.889 1.889h-41.556c-1.043 0-1.889-0.846-1.889-1.889zM0.444 16c0-1.043 0.846-1.889 1.889-1.889h41.556c1.043 0 1.889 0.846 1.889 1.889s-0.846 1.889-1.889 1.889h-41.556c-1.043 0-1.889-0.846-1.889-1.889zM21.222 29.222c0-1.043 0.846-1.889 1.889-1.889h20.778c1.043 0 1.889 0.846 1.889 1.889s-0.846 1.889-1.889 1.889h-20.778c-1.043 0-1.889-0.846-1.889-1.889z"></path>
</symbol>
<symbol id="icon-telegram" viewBox="0 0 32 32">
<path d="M32 2.667l-32 15 10.227 3.156 15.773-12.323-11.998 13.488 0.010 0.003-0.012-0.003v7.345l5.735-5.576 7.265 2.242 5-23.333z"></path>
</symbol>
<symbol id="icon-linkedin" viewBox="0 0 32 32">
<path d="M31.992 32v-0.001h0.008v-11.736c0-5.741-1.236-10.164-7.948-10.164-3.227 0-5.392 1.771-6.276 3.449h-0.093v-2.913h-6.364v21.364h6.627v-10.579c0-2.785 0.528-5.479 3.977-5.479 3.399 0 3.449 3.179 3.449 5.657v10.401h6.62z"></path>
<path d="M0.528 10.636h6.635v21.364h-6.635v-21.364z"></path>
<path d="M3.843-0c-2.121 0-3.843 1.721-3.843 3.843s1.721 3.879 3.843 3.879c2.121 0 3.843-1.757 3.843-3.879-0.001-2.121-1.723-3.843-3.843-3.843v0z"></path>
</symbol>
<symbol id="icon-cv" viewBox="0 0 32 32">
<path d="M27 0h-24c-1.65 0-3 1.35-3 3v26c0 1.65 1.35 3 3 3h24c1.65 0 3-1.35 3-3v-26c0-1.65-1.35-3-3-3zM26 28h-22v-24h22v24zM8 18h14v2h-14zM8 22h14v2h-14zM10 9c0-1.657 1.343-3 3-3s3 1.343 3 3c0 1.657-1.343 3-3 3s-3-1.343-3-3zM15 12h-4c-1.65 0-3 0.9-3 2v2h10v-2c0-1.1-1.35-2-3-2z"></path>
</symbol>
<symbol id="icon-github" viewBox="0 0 32 32">
<path d="M16 0.395c-8.836 0-16 7.163-16 16 0 7.069 4.585 13.067 10.942 15.182 0.8 0.148 1.094-0.347 1.094-0.77 0-0.381-0.015-1.642-0.022-2.979-4.452 0.968-5.391-1.888-5.391-1.888-0.728-1.849-1.776-2.341-1.776-2.341-1.452-0.993 0.11-0.973 0.11-0.973 1.606 0.113 2.452 1.649 2.452 1.649 1.427 2.446 3.743 1.739 4.656 1.33 0.143-1.034 0.558-1.74 1.016-2.14-3.554-0.404-7.29-1.777-7.29-7.907 0-1.747 0.625-3.174 1.649-4.295-0.166-0.403-0.714-2.030 0.155-4.234 0 0 1.344-0.43 4.401 1.64 1.276-0.355 2.645-0.532 4.005-0.539 1.359 0.006 2.729 0.184 4.008 0.539 3.054-2.070 4.395-1.64 4.395-1.64 0.871 2.204 0.323 3.831 0.157 4.234 1.026 1.12 1.647 2.548 1.647 4.295 0 6.145-3.743 7.498-7.306 7.895 0.574 0.497 1.085 1.47 1.085 2.963 0 2.141-0.019 3.864-0.019 4.391 0 0.426 0.288 0.925 1.099 0.768 6.354-2.118 10.933-8.113 10.933-15.18 0-8.837-7.164-16-16-16z"></path>
</symbol>
</defs>
</svg>
