<svg aria-hidden="true" style="position: absolute; width: 0; height: 0; overflow: hidden;" version="1.1" xmlns="http://www.w3.org/2000/svg" xmlns:xlink="http://www.w3.org/1999/xlink">
<defs>
<symbol id="icon-react-svgrepo-com" viewBox="0 0 32 32">
<path d="M16 13.48c1.377 0 2.493 1.116 2.493 2.493s-1.116 2.493-2.493 2.493c-1.368 0-2.478-1.101-2.493-2.465v-0.001c-0-0.004-0-0.009-0-0.013 0-1.38 1.115-2.499 2.493-2.507h0.001zM9.827 26.667c0.84 0.507 2.667-0.267 4.8-2.267-0.668-0.756-1.329-1.582-1.948-2.439l-0.065-0.095c-1.247-0.141-2.336-0.328-3.403-0.572l0.203 0.039c-0.68 2.853-0.427 4.813 0.413 5.333zM10.773 19.013l-0.387-0.68c-0.127 0.301-0.259 0.682-0.369 1.072l-0.018 0.074c0.36 0.080 0.76 0.147 1.173 0.213l-0.4-0.68zM19.493 18l1.080-2-1.080-2c-0.4-0.707-0.827-1.333-1.213-1.96-0.72-0.040-1.48-0.040-2.28-0.040s-1.56 0-2.28 0c-0.387 0.627-0.813 1.253-1.213 1.96l-1.080 2.040 1.080 2c0.4 0.707 0.827 1.333 1.213 1.96 0.72 0 1.48 0 2.28 0s1.56 0 2.28 0c0.387-0.627 0.813-1.253 1.213-1.96zM16 9.040c-0.253 0.293-0.52 0.6-0.787 0.96h1.573c-0.267-0.36-0.533-0.667-0.787-0.96zM16 22.96c0.253-0.293 0.52-0.6 0.787-0.96h-1.573c0.267 0.36 0.533 0.667 0.787 0.96zM22.16 5.333c-0.827-0.507-2.667 0.267-4.787 2.267 0.668 0.756 1.329 1.582 1.948 2.439l0.065 0.095c1.235 0.119 2.327 0.289 3.398 0.515l-0.198-0.035c0.68-2.853 0.427-4.813-0.427-5.333zM21.227 12.933l0.387 0.68c0.127-0.301 0.259-0.682 0.369-1.072l0.018-0.074c-0.36-0.080-0.76-0.147-1.173-0.213l0.4 0.68zM23.16 3.6c1.96 1.12 2.173 4.067 1.333 7.507 3.387 1 5.827 2.667 5.827 4.907s-2.44 3.907-5.827 4.907c0.827 3.44 0.613 6.387-1.333 7.507s-4.6-0.16-7.16-2.6c-2.56 2.44-5.213 3.72-7.173 2.6s-2.16-4-1.333-7.507c-3.387-1-5.827-2.667-5.827-4.907s2.44-3.92 5.827-4.92c-0.827-3.44-0.613-6.387 1.333-7.507s4.613 0.16 7.173 2.6c2.56-2.44 5.213-3.72 7.16-2.6zM22.773 16c0.387 0.787 0.801 1.782 1.162 2.803l0.065 0.21c2.8-0.84 4.373-2.040 4.373-3.013s-1.613-2.173-4.373-3.013c-0.425 1.231-0.84 2.227-1.305 3.193l0.078-0.18zM9.227 16c-0.387-0.787-0.801-1.782-1.162-2.803l-0.065-0.21c-2.8 0.84-4.373 2.040-4.373 3.013s1.613 2.173 4.373 3.013c0.426-1.231 0.84-2.227 1.305-3.193l-0.078 0.18zM21.227 19.013l-0.4 0.68c0.413 0 0.813-0.133 1.173-0.213-0.128-0.465-0.26-0.846-0.412-1.217l0.026 0.070-0.387 0.68zM17.333 24.4c2.12 2 4 2.773 4.787 2.267s1.107-2.427 0.427-5.333c-0.873 0.191-1.965 0.361-3.075 0.47l-0.125 0.010c-0.686 0.976-1.347 1.819-2.047 2.627l0.034-0.040zM10.773 12.987l0.4-0.68c-0.413 0-0.813 0.133-1.173 0.213 0.128 0.465 0.26 0.846 0.412 1.217l-0.026-0.070 0.387-0.68zM14.667 7.6c-2.16-2-4-2.773-4.84-2.267s-1.093 2.427-0.413 5.333c0.873-0.191 1.965-0.361 3.075-0.47l0.125-0.010c0.696-0.971 1.37-1.814 2.083-2.621l-0.030 0.035z"></path>
</symbol>
<symbol id="icon-rest-api-svgrepo-com" viewBox="0 0 32 32">
<path d="M25.6 20.8c-2.080 0-3.84 1.28-4.48 3.2h-6.72c0-1.12-0.32-2.080-0.8-2.88l11.36-11.68c0.48 0 0.96 0.16 1.44 0.16 2.24 0 4-1.76 4-4s-1.76-4-4-4-4 1.76-4 4c0 0.48 0.16 1.12 0.32 1.6l-11.2 11.52c-0.96-0.8-2.24-1.12-3.52-1.12v-6.72c1.92-0.64 3.2-2.4 3.2-4.48 0-2.72-2.080-4.8-4.8-4.8s-4.8 2.080-4.8 4.8c0 2.080 1.28 3.84 3.2 4.48v7.52c-1.92 1.12-3.2 3.2-3.2 5.44 0 3.52 2.88 6.4 6.4 6.4 2.4 0 4.48-1.28 5.44-3.2h7.52c0.64 1.76 2.4 3.2 4.48 3.2 2.56 0 4.8-2.080 4.8-4.8 0.16-2.56-2.080-4.64-4.64-4.64z"></path>
</symbol>
<symbol id="icon-database-svgrepo-com" viewBox="0 0 32 32">
<path d="M16 9.6c6.24 0 11.2-1.44 11.2-3.2s-4.96-3.2-11.2-3.2-11.2 1.44-11.2 3.2 4.96 3.2 11.2 3.2zM16 24c-6.24 0-11.2-1.44-11.2-3.2v4.8c0 1.76 4.96 3.2 11.2 3.2s11.2-1.44 11.2-3.2v-4.8c0 1.76-4.96 3.2-11.2 3.2zM16 17.6c-6.24 0-11.2-1.44-11.2-3.2v4.8c0 1.76 4.96 3.2 11.2 3.2s11.2-1.44 11.2-3.2v-4.8c0 1.76-4.96 3.2-11.2 3.2zM16 11.2c-6.24 0-11.2-1.44-11.2-3.2v4.8c0 1.76 4.96 3.2 11.2 3.2s11.2-1.44 11.2-3.2v-4.8c0 1.76-4.96 3.2-11.2 3.2z"></path>
</symbol>
<symbol id="icon-web-design-svgrepo-com" viewBox="0 0 32 32">
<path d="M15.288 8.593c-1.635 0-2.965 1.33-2.965 2.964s1.33 2.965 2.965 2.965c1.635 0 2.964-1.33 2.964-2.965s-1.33-2.964-2.964-2.964zM15.288 13.43c-1.032 0-1.872-0.84-1.872-1.872s0.84-1.872 1.872-1.872c1.032 0 1.872 0.84 1.872 1.872s-0.84 1.872-1.872 1.872z"></path>
<path d="M28.255 7.69c-1.071 0-1.943 0.872-1.943 1.943s0.872 1.943 1.943 1.943 1.943-0.872 1.943-1.943c-0-1.071-0.872-1.943-1.943-1.943zM28.255 10.484c-0.469 0-0.851-0.382-0.851-0.851s0.381-0.851 0.851-0.851 0.851 0.382 0.851 0.851c-0 0.469-0.382 0.851-0.851 0.851z"></path>
<path d="M29.8 2.462l-7.943-0c-1.213 0-2.2 0.987-2.2 2.201v2.508h-3.275c-0.001 0-0.001-0-0.002-0h-11.926c-0.001 0-0.003 0-0.004 0h-2.114c-1.287 0-2.334 1.047-2.334 2.334v14.026c0 1.287 1.047 2.334 2.334 2.334h8.364l-0.737 2.996c-0.001 0.003-0.001 0.005-0.001 0.008-0.003 0.013-0.005 0.026-0.007 0.040-0.001 0.006-0.002 0.013-0.003 0.020-0.002 0.013-0.002 0.026-0.003 0.040-0 0.007-0.001 0.014-0.001 0.020 0 0.001-0 0.003-0 0.004 0 0.016 0.001 0.032 0.002 0.048 0 0.002 0 0.004 0 0.006 0.002 0.020 0.005 0.040 0.009 0.059 0.001 0.003 0.001 0.005 0.002 0.007 0.004 0.017 0.008 0.033 0.014 0.049 0.002 0.005 0.003 0.009 0.005 0.014 0.005 0.014 0.010 0.027 0.016 0.041 0.002 0.005 0.005 0.011 0.008 0.016 0.006 0.012 0.012 0.024 0.019 0.035 0.003 0.006 0.007 0.011 0.010 0.017 0.007 0.011 0.015 0.022 0.023 0.033 0.003 0.004 0.005 0.008 0.008 0.011 0.001 0.002 0.003 0.003 0.004 0.004 0.010 0.012 0.020 0.023 0.030 0.035 0.003 0.003 0.005 0.006 0.008 0.009 0.014 0.014 0.028 0.026 0.043 0.038 0.004 0.003 0.008 0.006 0.012 0.009 0.011 0.009 0.023 0.017 0.035 0.025 0.005 0.003 0.011 0.006 0.016 0.010 0.011 0.007 0.023 0.014 0.035 0.020 0.006 0.003 0.011 0.005 0.017 0.008 0.012 0.006 0.025 0.011 0.038 0.016 0.006 0.002 0.011 0.004 0.017 0.006 0.013 0.005 0.027 0.008 0.040 0.012 0.006 0.001 0.011 0.003 0.016 0.004 0.014 0.003 0.029 0.006 0.044 0.008 0.005 0.001 0.010 0.002 0.015 0.002 0.020 0.002 0.040 0.003 0.060 0.003h10.908c0.302 0 0.546-0.245 0.546-0.546s-0.244-0.546-0.546-0.546h-3.626l0.635-2.58 9.553-0c1.152 0 2.089-0.937 2.089-2.088v-4.725c1.096-0.125 1.95-1.057 1.95-2.186v-12.204c0-1.213-0.987-2.2-2.2-2.2zM22.497 4.663c0-0.611 0.497-1.108 1.108-1.108h6.195c0.611-0 1.108 0.497 1.108 1.108v0.644h-8.411v-0.644zM22.497 6.399h8.411v8.662h-0.261l-2.749-3.025c-0.104-0.114-0.25-0.179-0.404-0.179s-0.301 0.065-0.404 0.179l-0.78 0.859-1.938-2.132c-0.104-0.114-0.25-0.179-0.404-0.179s-0.301 0.065-0.404 0.179l-1.066 1.173v-5.537zM29.17 15.061h-0.892l-1.231-1.354 0.446-0.491 1.677 1.845zM22.497 13.517l0.022 0.020 1.449-1.594 2.835 3.118h-4.305v-1.544zM20.749 4.663c0-0.557 0.413-1.018 0.948-1.096-0.186 0.323-0.293 0.697-0.293 1.095v12.203c0 0.398 0.107 0.772 0.293 1.095-0.535-0.078-0.948-0.538-0.948-1.095v-12.203zM3.456 19.465l4.394-4.516 5.842 6.425h-10.236v-1.909zM12.658 18.611l1.312-1.444 3.823 4.207-2.624 0-2.511-2.762zM2.617 24.773h-0.283c-0.685 0-1.242-0.557-1.242-1.242v-14.026c0-0.685 0.557-1.242 1.242-1.242h0.283c-0.161 0.296-0.253 0.636-0.253 0.996v14.518c0 0.36 0.092 0.7 0.253 0.996zM16.648 28.445h-5.46l0.635-2.58h5.46l-0.635 2.58zM28.958 23.777c0 0.549-0.447 0.996-0.996 0.996h-23.509c-0.549 0-0.996-0.447-0.996-0.996v-1.311h25.501v1.311zM28.958 21.374h-9.688l-4.895-5.386c-0.104-0.114-0.25-0.179-0.404-0.179s-0.301 0.065-0.404 0.179l-1.646 1.812-3.651-4.015c-0.101-0.111-0.244-0.176-0.395-0.179-0.152-0.001-0.296 0.057-0.401 0.165l-4.016 4.128v-8.639c0-0.549 0.446-0.995 0.994-0.996h15.206v8.603c0 1.213 0.987 2.2 2.2 2.2l7.101 0v2.307zM30.908 16.866c0 0.611-0.497 1.108-1.108 1.108l-6.2-0c-0.609-0.002-1.104-0.498-1.104-1.108v-0.713h8.411v0.713z"></path>
</symbol>
<symbol id="icon-javascript" viewBox="0 0 32 32">
<path d="M0 0h32v32h-32v-32zM29.379 24.368c-0.233-1.46-1.184-2.687-4.004-3.831-0.981-0.46-2.072-0.78-2.396-1.52-0.121-0.44-0.14-0.68-0.061-0.94 0.2-0.861 1.22-1.12 2.020-0.88 0.52 0.16 1 0.56 1.301 1.2 1.379-0.901 1.379-0.901 2.34-1.5-0.36-0.56-0.539-0.801-0.781-1.040-0.84-0.94-1.959-1.42-3.779-1.379l-0.94 0.119c-0.901 0.22-1.76 0.7-2.28 1.34-1.52 1.721-1.081 4.721 0.759 5.961 1.82 1.36 4.481 1.659 4.821 2.94 0.32 1.56-1.16 2.060-2.621 1.88-1.081-0.24-1.68-0.781-2.34-1.781l-2.44 1.401c0.28 0.64 0.6 0.919 1.080 1.479 2.32 2.341 8.12 2.221 9.161-1.339 0.039-0.12 0.32-0.94 0.099-2.2l0.061 0.089zM17.401 14.708h-2.997c0 2.584-0.012 5.152-0.012 7.74 0 1.643 0.084 3.151-0.184 3.615-0.44 0.919-1.573 0.801-2.088 0.64-0.528-0.261-0.796-0.621-1.107-1.14-0.084-0.14-0.147-0.261-0.169-0.261l-2.433 1.5c0.407 0.84 1 1.563 1.765 2.023 1.14 0.68 2.672 0.9 4.276 0.54 1.044-0.301 1.944-0.921 2.415-1.881 0.68-1.24 0.536-2.76 0.529-4.461 0.016-2.739 0-5.479 0-8.239l0.005-0.075z"></path>
</symbol>
<symbol id="icon-htmx" viewBox="0 0 32 32">
<path d="M0 17.347v-2.667l9.453-3.973 0.773 2.587-6.8 2.733 6.88 2.733-0.84 2.533zM21.827 18.72l6.907-2.667-6.88-2.787 0.867-2.507 9.28 3.84v2.827l-9.333 3.907zM18.027 5.413h3.307l-7.293 21.173h-3.307z"></path>
</symbol>
<symbol id="icon-redux" viewBox="0 0 32 32">
<path d="M22.179 22.005c1.16-0.1 2.057-1.12 2-2.339-0.063-1.219-1.061-2.197-2.279-2.197h-0.081c-1.224 0.045-2.199 1.048-2.199 2.279 0 0.028 0 0.056 0.002 0.084l-0-0.004c0.040 0.639 0.301 1.159 0.659 1.537-1.397 2.717-3.495 4.715-6.673 6.393-2.137 1.117-4.395 1.539-6.592 1.24-1.837-0.26-3.275-1.080-4.155-2.399-1.317-1.999-1.437-4.155-0.34-6.312 0.8-1.56 1.999-2.697 2.799-3.257-0.216-0.573-0.409-1.263-0.547-1.974l-0.013-0.083c-5.916 4.237-5.313 10.029-3.516 12.767 1.339 1.997 4.076 3.275 7.072 3.275 0.8 0 1.64-0.059 2.457-0.259 5.196-0.999 9.131-4.115 11.388-8.709zM29.309 17.011c-3.093-3.637-7.651-5.635-12.845-5.635h-0.68c-0.337-0.739-1.116-1.199-1.997-1.199h-0.060c-1.257 0-2.237 1.080-2.196 2.337 0.040 1.197 1.059 2.197 2.277 2.197h0.099c0.902-0.036 1.664-0.597 1.993-1.384l0.005-0.015h0.74c3.079 0 5.993 0.899 8.651 2.656 2.036 1.34 3.496 3.097 4.316 5.196 0.717 1.717 0.679 3.396-0.060 4.796-1.14 2.196-3.059 3.356-5.595 3.356-1.599 0-3.156-0.5-3.956-0.859-0.48 0.397-1.28 1.057-1.859 1.457 1.757 0.797 3.536 1.257 5.253 1.257 3.896 0 6.792-2.196 7.892-4.315 1.197-2.397 1.099-6.432-1.96-9.888zM8.653 22.723c0.040 1.199 1.057 2.197 2.277 2.197h0.080c1.221-0.028 2.2-1.025 2.2-2.25 0-0.038-0.001-0.075-0.003-0.113l0 0.005c0-1.2-1.039-2.196-2.257-2.196h-0.080c-0.080 0-0.2 0-0.301 0.039-1.657-2.797-2.357-5.796-2.096-9.029 0.16-2.437 0.96-4.556 2.396-6.313 1.2-1.499 3.457-2.24 4.996-2.277 4.315-0.081 6.113 5.295 6.252 7.432l1.997 0.6c-0.46-6.555-4.533-9.991-8.429-9.991-3.659 0-7.032 2.657-8.392 6.553-1.857 5.193-0.639 10.189 1.64 14.185-0.2 0.26-0.32 0.719-0.28 1.157z"></path>
</symbol>
<symbol id="icon-typescript" viewBox="0 0 32 32">
<path d="M1.5 0c-0.831 0-1.5 0.669-1.5 1.5v29c0 0.831 0.669 1.5 1.5 1.5h29c0.831 0 1.5-0.669 1.5-1.5v-29c0-0.831-0.669-1.5-1.5-1.5zM24.651 13c0.816 0 1.539 0.049 2.169 0.148 0.655 0.1 1.241 0.258 1.799 0.473l-0.058-0.020v3.277c-0.247-0.173-0.528-0.334-0.824-0.468l-0.033-0.013c-0.263-0.123-0.58-0.241-0.908-0.335l-0.048-0.012c-0.569-0.165-1.223-0.262-1.899-0.267h-0.003c-0.4 0-0.764 0.037-1.092 0.115-0.314 0.068-0.591 0.18-0.844 0.33l0.013-0.007c-0.227 0.139-0.4 0.305-0.524 0.499-0.117 0.18-0.187 0.401-0.187 0.638 0 0.005 0 0.011 0 0.016v-0.001c0 0.261 0.071 0.497 0.208 0.705 0.139 0.208 0.336 0.405 0.591 0.592s0.564 0.368 0.928 0.547c0.364 0.18 0.776 0.365 1.235 0.555 0.627 0.263 1.189 0.543 1.688 0.837 0.499 0.296 0.927 0.631 1.284 1.004 0.357 0.372 0.629 0.797 0.819 1.276s0.285 1.035 0.285 1.671c0 0.876-0.167 1.613-0.497 2.208-0.331 0.593-0.786 1.080-1.334 1.437l-0.015 0.009c-0.568 0.366-1.233 0.642-1.945 0.788l-0.038 0.006c-0.755 0.16-1.551 0.24-2.387 0.24-0.017 0-0.038 0-0.058 0-0.847 0-1.675-0.080-2.478-0.232l0.082 0.013c-0.756-0.133-1.433-0.362-2.058-0.677l0.042 0.019v-3.507c1.155 0.988 2.664 1.592 4.314 1.6h0.002c0.444 0 0.832-0.040 1.163-0.12 0.332-0.080 0.608-0.192 0.831-0.333 0.221-0.144 0.387-0.312 0.497-0.507 0.103-0.187 0.164-0.41 0.164-0.648 0-0.302-0.098-0.582-0.265-0.808l0.003 0.004c-0.2-0.262-0.436-0.483-0.705-0.66l-0.011-0.007c-0.307-0.207-0.66-0.404-1.029-0.573l-0.047-0.019c-0.21-0.109-0.652-0.304-1.099-0.491l-0.244-0.091c-1.224-0.511-2.136-1.136-2.737-1.873-0.6-0.737-0.901-1.629-0.901-2.673 0-0.819 0.164-1.521 0.492-2.109s0.773-1.072 1.339-1.452c0.561-0.375 1.216-0.665 1.919-0.831l0.041-0.008c0.693-0.17 1.488-0.268 2.306-0.268 0.019 0 0.038 0 0.057 0h-0.003zM4.5 13.251h12.751v2.888h-4.576v12.861h-3.623v-12.861h-4.552z"></path>
</symbol>
<symbol id="icon-nodedotjs" viewBox="0 0 32 32">
<path d="M15.997 32c-0.428 0-0.855-0.112-1.229-0.329l-3.915-2.316c-0.584-0.327-0.299-0.443-0.107-0.511 0.78-0.271 0.937-0.333 1.771-0.805 0.087-0.049 0.201-0.031 0.291 0.023l3.008 1.785c0.109 0.060 0.263 0.060 0.363 0l11.727-6.768c0.109-0.063 0.179-0.188 0.179-0.317v-13.533c0-0.132-0.071-0.256-0.183-0.323l-11.721-6.763c-0.108-0.063-0.252-0.063-0.361 0l-11.719 6.764c-0.113 0.065-0.185 0.193-0.185 0.321v13.533c0 0.129 0.072 0.252 0.185 0.313l3.212 1.856c1.743 0.872 2.811-0.155 2.811-1.187v-13.361c0-0.189 0.152-0.337 0.341-0.337h1.487c0.185 0 0.34 0.149 0.34 0.337v13.361c0 2.327-1.267 3.66-3.472 3.66-0.677 0-1.212 0-2.701-0.735l-3.077-1.769c-0.76-0.439-1.229-1.26-1.229-2.139v-13.533c0-0.879 0.471-1.7 1.229-2.137l11.727-6.776c0.743-0.42 1.728-0.42 2.464 0l11.725 6.776c0.76 0.439 1.232 1.259 1.232 2.137v13.533c0 0.879-0.472 1.697-1.232 2.139l-11.725 6.771c-0.373 0.217-0.799 0.329-1.233 0.329zM25.465 18.657c0-2.533-1.712-3.208-5.316-3.684-3.641-0.481-4.012-0.731-4.012-1.583 0-0.704 0.313-1.644 3.011-1.644 2.409 0 3.297 0.519 3.663 2.143 0.032 0.153 0.172 0.265 0.329 0.265h1.521c0.095 0 0.184-0.041 0.248-0.108 0.064-0.072 0.099-0.164 0.089-0.261-0.236-2.797-2.095-4.101-5.851-4.101-3.344 0-5.339 1.411-5.339 3.777 0 2.567 1.984 3.276 5.193 3.593 3.84 0.376 4.137 0.937 4.137 1.692 0 1.311-1.052 1.869-3.523 1.869-3.103 0-3.785-0.779-4.015-2.323-0.027-0.165-0.168-0.287-0.337-0.287h-1.516c-0.188 0-0.339 0.149-0.339 0.337 0 1.976 1.075 4.331 6.207 4.331 3.717 0.001 5.848-1.461 5.848-4.017z"></path>
</symbol>
</defs>
</svg>
